<svg xmlns="http://www.w3.org/2000/svg" width="1950" height="830" viewBox="0 0 1950 830">
  <style>
    text { font-family: Arial, Helvetica, sans-serif; fill: #000; }
    .label { font-size: 16px; font-weight: 700; }
    .title { font-size: 28px; font-weight: 700; }
    .layer { fill: #d9d9d9; stroke: #0c2348; stroke-width: 1.2; }
    .light { fill: #f0f0f0; stroke: #0c2348; stroke-width: 1.2; }
    .box { fill: #fff; stroke: #111; stroke-width: 1.1; }
    .dash { fill: none; stroke: #d8d8d8; stroke-width: 3; stroke-dasharray: 8 4; }
    .arrow { stroke: #000; stroke-width: 2; marker-end: url(#arrow); }
    .darrow { stroke: #000; stroke-width: 2; stroke-dasharray: 8 6; marker-end: url(#arrow); fill: none; }
    .orange { fill: #f6ad78; stroke: #111; }
    .deep { fill: #d86a13; stroke: #111; }
    .blue { fill: #9fc5e8; stroke: #111; }
    .purple { fill: #8f88ef; stroke: #111; }
    .green { fill: #d9ead3; stroke: #111; }
    .white { fill: #fff; stroke: #111; }
    .pos { fill: #1db34f; stroke: #111; }
    .pink { fill: #f4cccc; stroke: #111; }
    .yellow { fill: #ffd45d; }
  </style>
  <defs>
    <marker id="arrow" viewBox="0 0 10 10" refX="8" refY="5" markerWidth="6" markerHeight="6" orient="auto-start-reverse">
      <path d="M 0 0 L 10 5 L 0 10 z" fill="#000"/>
    </marker>
  </defs>

  <!-- Left: tokenization after pooling or aggregation -->
  <rect class="light" x="18" y="620" width="890" height="48" rx="7"/>
  <text x="372" y="652" font-size="22" font-weight="700">Embedding Layer</text>
  <rect class="dash" x="18" y="500" width="560" height="104" rx="6"/>
  <rect class="dash" x="646" y="500" width="122" height="104" rx="6"/>
  <rect class="dash" x="785" y="500" width="120" height="104" rx="6"/>

  <circle class="green" cx="55" cy="566" r="19"/><circle class="white" cx="55" cy="525" r="19"/>
  <polygon class="orange" points="39,500 71,500 55,463"/>
  <circle class="white" cx="179" cy="566" r="19"/><circle class="white" cx="179" cy="525" r="19"/>
  <polygon class="orange" points="163,500 195,500 179,463"/>
  <circle class="pos" cx="323" cy="566" r="19"/><circle class="white" cx="323" cy="525" r="19"/>
  <polygon class="orange" points="307,500 339,500 323,463"/>
  <text x="421" y="535" font-size="22" font-weight="700">...</text>
  <circle class="yellow" cx="245" cy="532" r="21"/>
  <circle class="yellow" cx="383" cy="532" r="21"/>
  <circle class="yellow" cx="526" cy="532" r="21"/>
  <circle class="blue" cx="681" cy="532" r="22"/><circle class="blue" cx="737" cy="532" r="22"/>
  <circle class="green" cx="821" cy="532" r="22"/><circle class="green" cx="879" cy="532" r="22"/>

  <rect class="light" x="18" y="414" width="890" height="48" rx="7"/>
  <text x="318" y="446" font-size="22" font-weight="700">Unified Tokenization Layer</text>
  <rect class="layer" x="18" y="329" width="642" height="70" rx="7"/>
  <rect class="box" x="175" y="343" width="310" height="43"/>
  <text x="188" y="372" font-size="24" font-weight="700">Sequence Modeling Layer</text>
  <rect class="dash" x="17" y="250" width="868" height="61" rx="6"/>
  <polygon class="purple" points="91,297 130,297 111,257"/>
  <polygon class="purple" points="228,297 267,297 248,257"/>
  <polygon class="purple" points="372,297 411,297 392,257"/>
  <text x="451" y="282" font-size="22" font-weight="700">...</text>
  <polygon class="purple" points="510,297 549,297 530,257"/>

  <rect class="layer" x="18" y="153" width="900" height="78" rx="7"/>
  <text x="28" y="176" font-size="18" font-weight="700">x n</text>
  <rect class="box" x="284" y="172" width="322" height="43"/>
  <text x="304" y="201" font-size="24" font-weight="700">Feature Interaction Layer</text>

  <g>
    <rect class="layer" x="76" y="79" width="96" height="49" rx="5"/>
    <text x="88" y="101" class="label">Multi-Task</text><text x="101" y="119" class="label">Tower</text>
    <circle cx="96" cy="48" r="16" fill="#b8c7df" stroke="#0c2348"/><text class="label" x="90" y="54">y</text>
    <circle cx="147" cy="48" r="16" fill="#b8c7df" stroke="#0c2348"/><text class="label" x="141" y="54">y</text>
    <text class="label" x="69" y="25">Task 1</text><text class="label" x="132" y="25">Task n</text><text class="label" x="115" y="55">...</text>
    <line class="arrow" x1="124" y1="153" x2="124" y2="129"/><line class="arrow" x1="96" y1="79" x2="96" y2="64"/><line class="arrow" x1="147" y1="79" x2="147" y2="64"/>
  </g>
  <g transform="translate(140,0)">
    <rect class="layer" x="76" y="79" width="96" height="49" rx="5"/>
    <text x="88" y="101" class="label">Multi-Task</text><text x="101" y="119" class="label">Tower</text>
    <circle cx="96" cy="48" r="16" fill="#b8c7df" stroke="#0c2348"/><text class="label" x="90" y="54">y</text>
    <circle cx="147" cy="48" r="16" fill="#b8c7df" stroke="#0c2348"/><text class="label" x="141" y="54">y</text>
    <text class="label" x="69" y="25">Task 1</text><text class="label" x="132" y="25">Task n</text><text class="label" x="115" y="55">...</text>
    <line class="arrow" x1="124" y1="153" x2="124" y2="129"/><line class="arrow" x1="96" y1="79" x2="96" y2="64"/><line class="arrow" x1="147" y1="79" x2="147" y2="64"/>
  </g>
  <g transform="translate(284,0)">
    <rect class="layer" x="76" y="79" width="96" height="49" rx="5"/>
    <text x="88" y="101" class="label">Multi-Task</text><text x="101" y="119" class="label">Tower</text>
    <circle cx="96" cy="48" r="16" fill="#b8c7df" stroke="#0c2348"/><text class="label" x="90" y="54">y</text>
    <circle cx="147" cy="48" r="16" fill="#b8c7df" stroke="#0c2348"/><text class="label" x="141" y="54">y</text>
    <text class="label" x="69" y="25">Task 1</text><text class="label" x="132" y="25">Task n</text><text class="label" x="115" y="55">...</text>
    <line class="arrow" x1="124" y1="153" x2="124" y2="129"/><line class="arrow" x1="96" y1="79" x2="96" y2="64"/><line class="arrow" x1="147" y1="79" x2="147" y2="64"/>
  </g>
  <g transform="translate(421,0)">
    <rect class="layer" x="76" y="79" width="96" height="49" rx="5"/>
    <text x="88" y="101" class="label">Multi-Task</text><text x="101" y="119" class="label">Tower</text>
    <circle cx="96" cy="48" r="16" fill="#b8c7df" stroke="#0c2348"/><text class="label" x="90" y="54">y</text>
    <circle cx="147" cy="48" r="16" fill="#b8c7df" stroke="#0c2348"/><text class="label" x="141" y="54">y</text>
    <text class="label" x="69" y="25">Task 1</text><text class="label" x="132" y="25">Task n</text><text class="label" x="115" y="55">...</text>
    <line class="arrow" x1="124" y1="153" x2="124" y2="129"/><line class="arrow" x1="96" y1="79" x2="96" y2="64"/><line class="arrow" x1="147" y1="79" x2="147" y2="64"/>
  </g>

  <line class="arrow" x1="111" y1="620" x2="111" y2="462"/><line class="arrow" x1="248" y1="620" x2="248" y2="462"/>
  <line class="arrow" x1="392" y1="620" x2="392" y2="462"/><line class="arrow" x1="530" y1="620" x2="530" y2="462"/>
  <line class="arrow" x1="681" y1="620" x2="681" y2="462"/><line class="arrow" x1="737" y1="620" x2="737" y2="462"/>
  <line class="arrow" x1="821" y1="620" x2="821" y2="462"/><line class="arrow" x1="879" y1="620" x2="879" y2="462"/>
  <line class="arrow" x1="111" y1="414" x2="111" y2="311"/><line class="arrow" x1="248" y1="414" x2="248" y2="311"/>
  <line class="arrow" x1="392" y1="414" x2="392" y2="311"/><line class="arrow" x1="530" y1="414" x2="530" y2="311"/>
  <path class="darrow" d="M55,463 C80,415 95,390 111,329"/><path class="darrow" d="M179,463 C210,426 238,392 248,329"/>
  <path class="darrow" d="M323,463 C350,423 382,397 392,329"/><path class="darrow" d="M526,463 C520,417 520,390 530,329"/>

  <!-- Right: layer-wise unified interaction -->
  <rect class="light" x="1058" y="620" width="887" height="48" rx="7"/>
  <text x="1388" y="652" font-size="22" font-weight="700">Embedding Layer</text>
  <rect class="light" x="1058" y="438" width="887" height="48" rx="7"/>
  <text x="1360" y="470" font-size="22" font-weight="700">Unified Tokenization Layer</text>
  <rect class="dash" x="1058" y="360" width="520" height="62" rx="6"/>
  <rect class="dash" x="1694" y="360" width="230" height="62" rx="6"/>
  <polygon class="deep" points="1088,410 1128,410 1108,371"/><polygon class="blue" points="1156,410 1196,410 1176,371"/>
  <polygon class="deep" points="1230,410 1270,410 1250,371"/><polygon class="blue" points="1300,410 1340,410 1320,371"/>
  <polygon class="deep" points="1378,410 1418,410 1398,371"/><polygon class="blue" points="1448,410 1488,410 1468,371"/>
  <text x="1520" y="398" font-size="22" font-weight="700">...</text>
  <polygon class="blue" points="1850,410 1890,410 1870,371"/>
  <circle class="yellow" cx="1632" cy="532" r="22"/>
  <circle class="blue" cx="1703" cy="532" r="22"/><circle class="blue" cx="1762" cy="532" r="22"/>
  <circle class="green" cx="1838" cy="532" r="22"/><circle class="green" cx="1900" cy="532" r="22"/>

  <rect class="layer" x="1058" y="153" width="887" height="193" rx="14"/>
  <text x="1068" y="176" font-size="18" font-weight="700">x n</text>
  <rect class="box" x="1327" y="213" width="355" height="49"/>
  <text x="1350" y="246" class="title">Unified Interaction Layer</text>

  <line class="arrow" x1="1108" y1="620" x2="1108" y2="486"/><line class="arrow" x1="1250" y1="620" x2="1250" y2="486"/>
  <line class="arrow" x1="1398" y1="620" x2="1398" y2="486"/><line class="arrow" x1="1632" y1="620" x2="1632" y2="486"/>
  <line class="arrow" x1="1703" y1="620" x2="1703" y2="486"/><line class="arrow" x1="1762" y1="620" x2="1762" y2="486"/>
  <line class="arrow" x1="1838" y1="620" x2="1838" y2="486"/><line class="arrow" x1="1900" y1="620" x2="1900" y2="486"/>
  <line class="arrow" x1="1108" y1="438" x2="1108" y2="422"/><line class="arrow" x1="1250" y1="438" x2="1250" y2="422"/>
  <line class="arrow" x1="1398" y1="438" x2="1398" y2="422"/><line class="arrow" x1="1703" y1="438" x2="1703" y2="422"/>
  <line class="arrow" x1="1762" y1="438" x2="1762" y2="422"/><line class="arrow" x1="1838" y1="438" x2="1838" y2="422"/><line class="arrow" x1="1900" y1="438" x2="1900" y2="422"/>

  <path class="darrow" d="M1108,360 C1138,318 1158,286 1176,153"/>
  <path class="darrow" d="M1176,360 C1198,323 1240,314 1250,153"/>
  <path class="darrow" d="M1250,360 C1276,318 1310,286 1320,153"/>
  <path class="darrow" d="M1320,360 C1354,320 1390,307 1398,153"/>
  <path class="darrow" d="M1398,360 C1430,318 1460,286 1468,153"/>
  <path class="darrow" d="M1468,360 C1495,318 1560,300 1575,153"/>
  <path class="darrow" d="M1703,360 C1716,305 1702,250 1703,153"/>
  <path class="darrow" d="M1870,360 C1895,300 1900,245 1900,153"/>

  <g transform="translate(1040,0)">
    <rect class="layer" x="76" y="79" width="96" height="49" rx="5"/>
    <text x="88" y="101" class="label">Multi-Task</text><text x="101" y="119" class="label">Tower</text>
    <circle cx="96" cy="48" r="16" fill="#b8c7df" stroke="#0c2348"/><text class="label" x="90" y="54">y</text>
    <circle cx="147" cy="48" r="16" fill="#b8c7df" stroke="#0c2348"/><text class="label" x="141" y="54">y</text>
    <text class="label" x="69" y="25">Task 1</text><text class="label" x="132" y="25">Task n</text><text class="label" x="115" y="55">...</text>
    <line class="darrow" x1="124" y1="153" x2="124" y2="129"/><line class="arrow" x1="96" y1="79" x2="96" y2="64"/><line class="arrow" x1="147" y1="79" x2="147" y2="64"/>
  </g>
  <g transform="translate(1180,0)">
    <rect class="layer" x="76" y="79" width="96" height="49" rx="5"/>
    <text x="88" y="101" class="label">Multi-Task</text><text x="101" y="119" class="label">Tower</text>
    <circle cx="96" cy="48" r="16" fill="#b8c7df" stroke="#0c2348"/><text class="label" x="90" y="54">y</text>
    <circle cx="147" cy="48" r="16" fill="#b8c7df" stroke="#0c2348"/><text class="label" x="141" y="54">y</text>
    <text class="label" x="69" y="25">Task 1</text><text class="label" x="132" y="25">Task n</text><text class="label" x="115" y="55">...</text>
    <line class="darrow" x1="124" y1="153" x2="124" y2="129"/><line class="arrow" x1="96" y1="79" x2="96" y2="64"/><line class="arrow" x1="147" y1="79" x2="147" y2="64"/>
  </g>
  <g transform="translate(1320,0)">
    <rect class="layer" x="76" y="79" width="96" height="49" rx="5"/>
    <text x="88" y="101" class="label">Multi-Task</text><text x="101" y="119" class="label">Tower</text>
    <circle cx="96" cy="48" r="16" fill="#b8c7df" stroke="#0c2348"/><text class="label" x="90" y="54">y</text>
    <circle cx="147" cy="48" r="16" fill="#b8c7df" stroke="#0c2348"/><text class="label" x="141" y="54">y</text>
    <text class="label" x="69" y="25">Task 1</text><text class="label" x="132" y="25">Task n</text><text class="label" x="115" y="55">...</text>
    <line class="darrow" x1="124" y1="153" x2="124" y2="129"/><line class="arrow" x1="96" y1="79" x2="96" y2="64"/><line class="arrow" x1="147" y1="79" x2="147" y2="64"/>
  </g>
  <text x="1525" y="102" font-size="24" font-weight="700">...</text>
  <g transform="translate(1600,0)">
    <rect class="layer" x="76" y="79" width="96" height="49" rx="5"/>
    <text x="88" y="101" class="label">Multi-Task</text><text x="101" y="119" class="label">Tower</text>
    <circle cx="96" cy="48" r="16" fill="#b8c7df" stroke="#0c2348"/><text class="label" x="90" y="54">y</text>
    <circle cx="147" cy="48" r="16" fill="#b8c7df" stroke="#0c2348"/><text class="label" x="141" y="54">y</text>
    <text class="label" x="69" y="25">Task 1</text><text class="label" x="132" y="25">Task n</text><text class="label" x="115" y="55">...</text>
    <line class="darrow" x1="124" y1="153" x2="124" y2="129"/><line class="arrow" x1="96" y1="79" x2="96" y2="64"/><line class="arrow" x1="147" y1="79" x2="147" y2="64"/>
  </g>

  <!-- Legend -->
  <rect class="dash" x="610" y="716" width="255" height="96" rx="8"/>
  <circle class="green" cx="644" cy="749" r="19"/><circle class="white" cx="683" cy="749" r="19"/>
  <circle class="pos" cx="644" cy="796" r="19"/><circle class="pink" cx="683" cy="796" r="19"/>
  <text class="label" x="716" y="755">Full User Action</text>
  <text class="label" x="716" y="778">e.g., exposure,</text>
  <text class="label" x="716" y="801">click, comment</text>
  <polygon class="orange" points="895,776 935,776 915,735"/>
  <text class="label" x="951" y="759">Full User Behavior</text>
  <polygon class="blue" points="895,823 935,823 915,782"/>
  <text class="label" x="951" y="806">Non-sequential Token</text>
  <polygon class="deep" points="1140,776 1180,776 1160,735"/>
  <text class="label" x="1196" y="759">Sequential Token</text>
  <polygon class="purple" points="1140,823 1180,823 1160,782"/>
  <text class="label" x="1196" y="806">Unified Token</text>
</svg>
