<svg xmlns="http://www.w3.org/2000/svg" width="930" height="390" viewBox="0 0 930 390">
  <style>
    text { font-family: Arial, Helvetica, sans-serif; fill: #000; }
    .label { font-size: 16px; font-weight: 700; }
    .small { font-size: 12px; font-weight: 700; }
    .layer { fill: #d9d9d9; stroke: #0c2348; stroke-width: 1.2; }
    .box { fill: #fff; stroke: #111; stroke-width: 1.1; }
    .dash { fill: none; stroke: #d8d8d8; stroke-width: 3; stroke-dasharray: 8 4; }
    .arrow { stroke: #000; stroke-width: 2; marker-end: url(#arrow); }
    .orange { fill: #f6ad78; }
    .yellow { fill: #ffd45d; }
    .blue { fill: #9fc5e8; }
    .green { fill: #a9d18e; }
  </style>
  <defs>
    <marker id="arrow" viewBox="0 0 10 10" refX="8" refY="5" markerWidth="6" markerHeight="6" orient="auto-start-reverse">
      <path d="M 0 0 L 10 5 L 0 10 z" fill="#000"/>
    </marker>
  </defs>

  <circle class="orange" cx="55" cy="95" r="21"/>
  <text class="label" x="88" y="91">Positive Feedback</text>
  <text class="label" x="88" y="114">User Behavior</text>
  <circle class="yellow" cx="268" cy="95" r="21"/>
  <text class="label" x="305" y="100">Target Item</text>
  <circle class="blue" cx="468" cy="95" r="21"/>
  <text class="label" x="501" y="100">User Profile</text>
  <circle class="green" cx="640" cy="95" r="21"/>
  <text class="label" x="678" y="100">Context</text>

  <line class="arrow" x1="868" y1="110" x2="868" y2="55"/>
  <circle cx="868" cy="38" r="19" fill="#b8c7df" stroke="#0c2348"/>
  <text class="label" x="861" y="44">y</text>
  <rect class="layer" x="823" y="82" width="92" height="45" rx="5"/>
  <text x="837" y="112" font-size="24" font-weight="700">Tower</text>
  <line class="arrow" x1="868" y1="153" x2="868" y2="128"/>

  <rect class="layer" x="18" y="153" width="900" height="78" rx="7"/>
  <text x="29" y="176" font-size="18" font-weight="700">x n</text>
  <rect class="box" x="290" y="172" width="312" height="43"/>
  <text x="312" y="201" font-size="24" font-weight="700">Feature Interaction Layer</text>

  <rect class="layer" x="19" y="327" width="900" height="48" rx="7" fill="#f0f0f0"/>
  <text x="383" y="359" font-size="22" font-weight="700">Embedding Layer</text>

  <rect class="dash" x="19" y="255" width="446" height="56" rx="6"/>
  <circle class="orange" cx="65" cy="284" r="22"/>
  <circle class="orange" cx="132" cy="284" r="22"/>
  <circle class="orange" cx="205" cy="284" r="22"/>
  <text x="237" y="290" font-size="22" font-weight="700">...</text>
  <circle class="orange" cx="283" cy="284" r="22"/>
  <circle class="orange" cx="350" cy="284" r="22"/>
  <circle class="orange" cx="417" cy="284" r="22"/>

  <rect class="box" x="491" y="256" width="58" height="37" rx="18"/>
  <text class="small" x="502" y="272">Target</text>
  <text class="small" x="499" y="286">Attention</text>
  <line class="arrow" x1="466" y1="284" x2="490" y2="284"/>
  <line class="arrow" x1="520" y1="256" x2="520" y2="232"/>

  <circle class="yellow" cx="597" cy="284" r="22"/>
  <circle class="blue" cx="665" cy="284" r="22"/>
  <circle class="blue" cx="726" cy="284" r="22"/>
  <circle class="green" cx="810" cy="284" r="22"/>
  <circle class="green" cx="872" cy="284" r="22"/>

  <rect class="dash" x="642" y="253" width="118" height="62" rx="6"/>
  <rect class="dash" x="778" y="253" width="129" height="62" rx="6"/>

  <line class="arrow" x1="65" y1="327" x2="65" y2="307"/>
  <line class="arrow" x1="132" y1="327" x2="132" y2="307"/>
  <line class="arrow" x1="205" y1="327" x2="205" y2="307"/>
  <line class="arrow" x1="283" y1="327" x2="283" y2="307"/>
  <line class="arrow" x1="350" y1="327" x2="350" y2="307"/>
  <line class="arrow" x1="417" y1="327" x2="417" y2="307"/>
  <line class="arrow" x1="597" y1="327" x2="597" y2="307"/>
  <line class="arrow" x1="665" y1="327" x2="665" y2="307"/>
  <line class="arrow" x1="726" y1="327" x2="726" y2="307"/>
  <line class="arrow" x1="810" y1="327" x2="810" y2="307"/>
  <line class="arrow" x1="872" y1="327" x2="872" y2="307"/>

  <line class="arrow" x1="520" y1="256" x2="520" y2="232"/>
  <line class="arrow" x1="597" y1="262" x2="597" y2="232"/>
  <line class="arrow" x1="665" y1="262" x2="665" y2="232"/>
  <line class="arrow" x1="726" y1="262" x2="726" y2="232"/>
  <line class="arrow" x1="810" y1="262" x2="810" y2="232"/>
  <line class="arrow" x1="872" y1="262" x2="872" y2="232"/>
</svg>
